HIERARCHY
ROOT root
{
	OFFSET 0.00 0.00 0.00
	CHANNELS 6 Xposition Yposition Zposition Zrotation Xrotation Yrotation
	JOINT lowerback
	{
		OFFSET 0 0 0
		CHANNELS 6 Xposition Yposition Zposition Zrotation Xrotation Yrotation
		JOINT upperback
		{
			OFFSET -0.214371 12.3768 -1.12219
			CHANNELS 6 Xposition Yposition Zposition Zrotation Xrotation Yrotation
			JOINT thorax
			{
				OFFSET -0.00137213 12.3873 0.296195
				CHANNELS 6 Xposition Yposition Zposition Zrotation Xrotation Yrotation
				JOINT lowerneck
				{
					OFFSET 0.0883157 12.5016 0.82912
					CHANNELS 6 Xposition Yposition Zposition Zrotation Xrotation Yrotation
					JOINT upperneck
					{
						OFFSET -1 10.1794 0.943522
						CHANNELS 6 Xposition Yposition Zposition Zrotation Xrotation Yrotation
						JOINT head
						{
							OFFSET 0.667525 10.2797 -1.57149
							CHANNELS 6 Xposition Yposition Zposition Zrotation Xrotation Yrotation
							End Site
							{
								OFFSET 0 0 0
							}
						}
					}
				}
				JOINT lclavicle
				{
					OFFSET 0.0883157 12.5016 0.82912
					CHANNELS 6 Xposition Yposition Zposition Zrotation Xrotation Yrotation
					JOINT lhumerus
					{
						OFFSET 20.61 4.45006 1.43784
						CHANNELS 6 Xposition Yposition Zposition Zrotation Xrotation Yrotation
						JOINT lradius
						{
							OFFSET 0 -30.3438 0
							CHANNELS 6 Xposition Yposition Zposition Zrotation Xrotation Yrotation
							JOINT lwrist
							{
								OFFSET 0 -18.964 0
								CHANNELS 6 Xposition Yposition Zposition Zrotation Xrotation Yrotation
								JOINT lhand
								{
									OFFSET 0 -9.48199 0
									CHANNELS 6 Xposition Yposition Zposition Zrotation Xrotation Yrotation
									JOINT lfingers
									{
										OFFSET 0 -3.17138 0
										CHANNELS 6 Xposition Yposition Zposition Zrotation Xrotation Yrotation
										End Site
										{
											OFFSET 0 -2.55685 0
										}
									}
								}
								JOINT lthumb
								{
									OFFSET 0 -9.48199 0
									CHANNELS 6 Xposition Yposition Zposition Zrotation Xrotation Yrotation
									End Site
									{
										OFFSET 0 -3.67114 0
									}
								}
							}
						}
					}
				}
				JOINT rclavicle
				{
					OFFSET 0.0883157 12.5016 0.82912
					CHANNELS 6 Xposition Yposition Zposition Zrotation Xrotation Yrotation
					JOINT rhumerus
					{
						OFFSET -20.61 4.45 1.44
						CHANNELS 6 Xposition Yposition Zposition Zrotation Xrotation Yrotation
						JOINT rradius
						{
							OFFSET 0 -29.5102 0
							CHANNELS 6 Xposition Yposition Zposition Zrotation Xrotation Yrotation
							JOINT rwrist
							{
								OFFSET 0 -19.2342 0
								CHANNELS 6 Xposition Yposition Zposition Zrotation Xrotation Yrotation
								JOINT rhand
								{
									OFFSET 0 -9.61712 0
									CHANNELS 6 Xposition Yposition Zposition Zrotation Xrotation Yrotation
									JOINT rfingers
									{
										OFFSET 0 -3.29215 0
										CHANNELS 6 Xposition Yposition Zposition Zrotation Xrotation Yrotation
										End Site
										{
											OFFSET 0 -2.557 0
										}
									}
								}
								JOINT rthumb
								{
									OFFSET 0 -9.61712 0
									CHANNELS 6 Xposition Yposition Zposition Zrotation Xrotation Yrotation
									End Site
									{
										OFFSET 0 -3.671 0
									}
								}
							}
						}
					}
				}
			}
		}
	}
	JOINT rfemur
	{
		OFFSET -8.46272 -9.62775 4.76248
		CHANNELS 6 Xposition Yposition Zposition Zrotation Xrotation Yrotation
		JOINT rtibia
		{
			OFFSET 1.00552e-005 -38.0331 0
			CHANNELS 6 Xposition Yposition Zposition Zrotation Xrotation Yrotation
			JOINT rfoot
			{
				OFFSET 1.14428e-005 -43.2815 0
				CHANNELS 6 Xposition Yposition Zposition Zrotation Xrotation Yrotation
				JOINT rtoes
				{
					OFFSET 0 -14.1868 -3.08763
					CHANNELS 6 Xposition Yposition Zposition Zrotation Xrotation Yrotation
					End Site
					{
						OFFSET 0 -7.27332 0
					}
				}
			}
		}
	}
	JOINT lfemur
	{
		OFFSET 9.10607 -9.62778 4.76249
		CHANNELS 6 Xposition Yposition Zposition Zrotation Xrotation Yrotation
		JOINT ltibia
		{
			OFFSET -1.01399e-005 -38.3535 0
			CHANNELS 6 Xposition Yposition Zposition Zrotation Xrotation Yrotation
			JOINT lfoot
			{
				OFFSET -1.12937e-005 -42.7176 0
				CHANNELS 6 Xposition Yposition Zposition Zrotation Xrotation Yrotation
				JOINT ltoes
				{
					OFFSET 0 -13.9965 -2.83857
					CHANNELS 6 Xposition Yposition Zposition Zrotation Xrotation Yrotation
					End Site
					{
						OFFSET 0 -7.16348 0
					}
				}
			}
		}
	}
}
MOTION
Frames: 4
Frame Time: 0.00833333
-2.42013	93.5639	84.6903	-6.98287	-0.333484	-2.24454	0 0 0 8.6104	-2.37548	2.68634	-0.214371 12.3768 -1.12219 -0.282564	5.6845	2.88234	-0.00137213 12.3873 0.296195 -4.74492	7.8025	1.84293	0.0883157 12.5016 0.82912 -3.54008	15.3521	-3.56515	-1 10.1794 0.943522 7.36518	-10.7719	-4.59519	0.667525 10.2797 -1.57149 3.4822	-5.47354	-2.68338	0.0883157 12.5016 0.82912 -15	0	-0	20.61 4.45006 1.43784 6.22377	14.4208	-126.674	0 -30.3438 0 -0	6.3845	-0	0 -18.964 0 1.32307e-014	-3.25884e-015	-117.674	0 -9.48199 0 1.22245	4.37968	-2.58917e-014	0 -3.17138 0 -0	7.12502	-0	0 -9.48199 0 25	15	-1.36605e-015	0.0883157 12.5016 0.82912 15	0	-0	-20.61 4.45 1.44 -14.3127	-6.57907	-170.595	0 -29.5102 0 -0	49.522	-0	0 -19.2342 0 5.26549e-016	-2.66684e-015	112.338	0 -9.61712 0 1.22	4.38	-0	0 -3.29215 0 -0	7.12502	-0	0 -9.61712 0 25	15	-7.97034e-015	-8.46272 -9.62775 4.76248 8.64935	16.3509	-4.05077	1.00552e-005 -38.0331 0 -0	22.2659	-0	1.14428e-005 -43.2815 0 -33.2599	-73.5976	-34.3605	0 -14.1868 -3.08763 -0	-29.2394	-0	9.10607 -9.62778 4.76249 9.92835	-23.5485	12.1757	-1.01399e-005 -38.3535 0 -0	35.8565	-0	-1.12937e-005 -42.7176 0 -1.31747	-77.9433	-1.34718	0 -13.9965 -2.83857 -0	-30.3457	-0
-2.31509	93.6435	85.6616	-7.23577	-0.302452	-2.97027	0 0 0 8.75937	-2.70663	2.62174	-0.214371 12.3768 -1.12219 -0.413353	5.37432	2.80512	-0.00137213 12.3873 0.296195 -4.97847	7.66305	1.81534	0.0883157 12.5016 0.82912 -3.80434	14.5341	-3.58144	-1 10.1794 0.943522 7.74026	-9.85717	-4.65353	0.667525 10.2797 -1.57149 3.59196	-5.03417	-2.71312	0.0883157 12.5016 0.82912 -15	0	-0	20.61 4.45006 1.43784 6.28833	14.2267	-126.212	0 -30.3438 0 -0	6.54227	-0	0 -18.964 0 1.32312e-014	-3.25797e-015	-117.666	0 -9.48199 0 1.22245	4.37968	-2.58917e-014	0 -3.17138 0 -0	7.12502	-0	0 -9.48199 0 25	15	-1.36605e-015	0.0883157 12.5016 0.82912 15	0	-0	-20.61 4.45 1.44 -14.4328	-5.89022	-169.608	0 -29.5102 0 -0	49.6124	-0	0 -19.2342 0 5.03615e-016	-2.61033e-015	111.84	0 -9.61712 0 1.22	4.38	-0	0 -3.29215 0 -0	7.12502	-0	0 -9.61712 0 25	15	-7.97034e-015	-8.46272 -9.62775 4.76248 8.26507	16.426	-4.123	1.00552e-005 -38.0331 0 -0	22.991	-0	1.14428e-005 -43.2815 0 -28.1853	-72.6093	-29.3157	0 -14.1868 -3.08763 -0	-29.1966	-0	9.10607 -9.62778 4.76249 10.1763	-22.8761	12.2154	-1.01399e-005 -38.3535 0 -0	36.1622	-0	-1.12937e-005 -42.7176 0 2.39625	-78.3824	2.44631	0 -13.9965 -2.83857 -0	-30.1206	-0
-2.21376	93.7135	86.623	-7.45633	-0.293223	-3.72613	0 0 0 8.8737	-3.01904	2.5524	-0.214371 12.3768 -1.12219 -0.539073	5.08226	2.7224	-0.00137213 12.3873 0.296195 -5.18801	7.52883	1.78208	0.0883157 12.5016 0.82912 -4.05406	13.7295	-3.58953	-1 10.1794 0.943522 8.09931	-8.94228	-4.7034	0.667525 10.2797 -1.57149 3.69298	-4.60066	-2.73595	0.0883157 12.5016 0.82912 -15	0	-0	20.61 4.45006 1.43784 6.32594	14.085	-126.02	0 -30.3438 0 -0	6.9099	-0	0 -18.964 0 1.32501e-014	-3.22158e-015	-117.331	0 -9.48199 0 1.22245	4.37968	-2.58917e-014	0 -3.17138 0 -0	7.12502	-0	0 -9.48199 0 25	15	-1.36605e-015	0.0883157 12.5016 0.82912 15	0	-0	-20.61 4.45 1.44 -14.6572	-5.25886	-168.505	0 -29.5102 0 -0	49.6082	-0	0 -19.2342 0 4.87522e-016	-2.56981e-015	111.484	0 -9.61712 0 1.22	4.38	-0	0 -3.29215 0 -0	7.12502	-0	0 -9.61712 0 25	15	-7.97034e-015	-8.46272 -9.62775 4.76248 7.79398	16.3698	-4.17415	1.00552e-005 -38.0331 0 -0	23.9635	-0	1.14428e-005 -43.2815 0 -23.6228	-71.4067	-24.7709	0 -14.1868 -3.08763 -0	-28.9732	-0	9.10607 -9.62778 4.76249 10.3421	-22.1402	12.1909	-1.01399e-005 -38.3535 0 -0	36.4128	-0	-1.12937e-005 -42.7176 0 6.61989	-78.801	6.74721	0 -13.9965 -2.83857 -0	-29.9243	-0
-2.11492	93.766	87.5679	-7.63552	-0.312424	-4.50864	0 0 0 8.93937	-3.30495	2.47873	-0.214371 12.3768 -1.12219 -0.66231	4.81433	2.63608	-0.00137213 12.3873 0.296195 -5.36823	7.40128	1.7436	0.0883157 12.5016 0.82912 -4.28161	12.9625	-3.59055	-1 10.1794 0.943522 8.43633	-8.04596	-4.74517	0.667525 10.2797 -1.57149 3.78401	-4.18313	-2.75262	0.0883157 12.5016 0.82912 -15	0	-0	20.61 4.45006 1.43784 6.35301	13.9875	-126.131	0 -30.3438 0 -0	7.46556	-0	0 -18.964 0 1.32864e-014	-3.15044e-015	-116.679	0 -9.48199 0 1.22245	4.37968	-2.58917e-014	0 -3.17138 0 -0	7.12502	-0	0 -9.48199 0 25	15	-1.36605e-015	0.0883157 12.5016 0.82912 15	0	-0	-20.61 4.45 1.44 -14.9748	-4.69259	-167.316	0 -29.5102 0 -0	49.5249	-0	0 -19.2342 0 4.78191e-016	-2.54598e-015	111.275	0 -9.61712 0 1.22	4.38	-0	0 -3.29215 0 -0	7.12502	-0	0 -9.61712 0 25	15	-7.97034e-015	-8.46272 -9.62775 4.76248 7.23338	16.1749	-4.19602	1.00552e-005 -38.0331 0 -0	25.1998	-0	1.14428e-005 -43.2815 0 -19.6838	-70.0147	-20.8397	0 -14.1868 -3.08763 -0	-28.5727	-0	9.10607 -9.62778 4.76249 10.425	-21.344	12.1163	-1.01399e-005 -38.3535 0 -0	36.6155	-0	-1.12937e-005 -42.7176 0 11.3228	-79.1709	11.5226	0 -13.9965 -2.83857 -0	-29.7475	-0
